<?xml version="1.0" standalone="no"?>
<!DOCTYPE svg PUBLIC "-//W3C//DTD SVG 20010904//EN"
 "http://www.w3.org/TR/2001/REC-SVG-20010904/DTD/svg10.dtd">
<svg version="1.0" xmlns="http://www.w3.org/2000/svg"
 width="261.000000pt" height="261.000000pt" viewBox="0 0 261.000000 261.000000"
 preserveAspectRatio="xMidYMid meet">
<metadata>
Created by potrace 1.14, written by Peter Selinger 2001-2017
</metadata>
<g transform="translate(0.000000,261.000000) scale(0.100000,-0.100000)"
fill="#000000" stroke="none">
<path d="M1244 2521 c-38 -23 -58 -70 -51 -118 9 -54 45 -85 105 -91 43 -4 53
-1 81 24 108 97 -11 261 -135 185z"/>
<path d="M1445 2199 c-46 -17 -135 -90 -135 -111 0 -17 -16 -7 -35 22 -11 17
-46 44 -78 60 -50 25 -68 29 -130 27 -89 -3 -151 -29 -257 -108 -173 -128
-336 -322 -394 -468 -39 -99 -10 -217 69 -290 l43 -40 -32 -24 c-77 -59 -112
-187 -78 -287 64 -187 332 -469 536 -564 50 -23 140 -31 192 -17 51 14 119 62
143 102 l18 30 17 -25 c69 -107 212 -142 338 -84 189 87 421 315 516 507 33
68 37 82 36 151 -2 109 -33 170 -119 234 -16 12 -17 15 -5 16 23 0 87 69 106
115 9 23 17 66 17 101 0 111 -94 265 -257 424 -213 209 -374 281 -511 229z
m-20 -670 c83 -39 147 -136 147 -225 0 -139 -94 -244 -234 -260 -102 -12 -203
47 -253 147 -19 37 -23 59 -21 115 1 40 9 82 19 100 69 131 214 184 342 123z"/>
<path d="M139 1411 c-46 -22 -74 -75 -65 -124 23 -124 191 -129 226 -7 25 88
-76 171 -161 131z"/>
<path d="M2363 1408 c-35 -17 -62 -81 -53 -124 29 -125 202 -123 226 3 8 44
-19 100 -57 120 -29 15 -86 16 -116 1z"/>
<path d="M1248 284 c-56 -30 -73 -104 -38 -162 52 -85 187 -59 209 40 22 96
-82 171 -171 122z"/>
</g>
</svg>
